<?xml version="1.0" encoding="UTF-8" standalone="no"?>
<svg width="209px" height="22px" viewBox="0 0 209 22" version="1.1" xmlns="http://www.w3.org/2000/svg" xmlns:xlink="http://www.w3.org/1999/xlink" xmlns:sketch="http://www.bohemiancoding.com/sketch/ns">
    <!-- Generator: Sketch 3.3.2 (12043) - http://www.bohemiancoding.com/sketch -->
    <title>Ordinary cat clicker</title>
    <desc>Created with Sketch.</desc>
    <defs></defs>
    <g id="Page-1" stroke="none" stroke-width="1" fill="none" fill-rule="evenodd" sketch:type="MSPage">
        <path d="M17.436664,9.48166313 C17.436664,6.64085831 16.3836071,4.41229592 14.2774932,2.84495533 C14.1550447,2.94291412 13.9836168,3.0898523 13.7387198,3.28576987 C13.5183126,3.53066684 13.3713744,3.75107411 13.2979053,3.94699168 C14.130555,4.77964137 14.7183077,5.58780136 15.0856531,6.42045104 C15.3795295,7.27759043 15.5509574,8.25717829 15.5509574,9.33472495 C15.5509574,10.3632922 15.2325913,11.3673698 14.6448386,12.395937 C14.0081065,13.2530764 13.1754568,13.9632776 12.1468895,14.5265406 C12.2448483,15.065314 12.4652556,15.5306182 12.8081114,15.946943 C14.1550447,15.5061285 15.2815707,14.6734788 16.2121792,13.448994 C16.9958495,12.2734885 17.4121743,10.9510449 17.436664,9.48166313 L17.436664,9.48166313 Z M12.8815804,1.5959808 C11.5346471,0.910269297 10.2366932,0.542923847 8.98771867,0.542923847 C6.88160476,0.542923847 5.02038781,1.30210444 3.40406784,2.77148624 C1.78774786,4.48576501 0.979587866,6.39596135 0.979587866,8.55105465 C0.979587866,11.024514 1.56734059,12.9836897 2.76733572,14.4285819 C4.3836557,16.2408194 6.44079022,17.1224485 8.96322898,17.1224485 C9.62445079,17.1224485 10.3836314,16.9265309 11.2652605,16.5346958 C11.1917914,15.9959224 11.0448532,15.5306182 10.7999562,15.0898037 C10.1632241,15.2857212 9.5509817,15.38368 8.96322898,15.38368 C7.15099142,15.38368 5.60814053,14.6979685 4.359166,13.3755249 C3.35508844,12.2245092 2.86529451,10.706148 2.86529451,8.82044132 C2.86529451,7.00820376 3.47753693,5.39188379 4.75100115,3.99597108 C5.95099629,2.86944503 7.37139869,2.30618201 9.01220837,2.30618201 C10.0652653,2.30618201 11.1183223,2.57556867 12.1958689,3.114342 C12.3183174,2.96740382 12.4652556,2.72250685 12.6366835,2.3551614 C12.7836217,2.03679534 12.8815804,1.79189838 12.8815804,1.5959808 L12.8815804,1.5959808 Z M27.8202954,7.03269346 C27.0856045,6.83677589 26.3754033,6.7143274 25.6652021,6.7143274 C24.0488821,6.7143274 22.5550106,7.25310073 21.1590979,8.33064738 L20.9631803,6.7633068 C20.6448143,6.7388171 20.424407,6.7143274 20.2774688,6.7143274 C20.0815513,6.7143274 19.7876749,6.7633068 19.3958398,6.81228619 C19.3958398,8.1837092 19.4693088,9.92247767 19.616247,12.0041019 C19.8121646,14.4530715 20.0080822,16.1183709 20.2284894,17.0489794 C21.0366494,17.0489794 21.5264434,17 21.6978712,16.9020412 C21.6978712,16.8040824 21.7223609,16.5836752 21.7223609,16.2408194 C21.7223609,15.6530667 21.5754228,13.5714425 21.2815464,9.94696736 C22.7999076,8.86942071 24.4162276,8.30615769 26.1305063,8.30615769 C26.4733621,8.30615769 26.9876457,8.35513708 27.6733572,8.42860617 C27.771316,8.15921951 27.8202954,7.69391527 27.8202954,7.03269346 L27.8202954,7.03269346 Z M29.0447802,11.9551225 C29.1672287,15.2612315 30.8570178,16.9510206 34.1386371,17.0244897 C35.1916941,17.0244897 36.1957717,16.6816339 37.1263801,15.946943 C37.0284213,15.5551079 36.9549523,15.2857212 36.9059729,15.1387831 C36.8569935,14.9673552 36.734545,14.7959273 36.5876068,14.6000097 C35.5100602,15.0898037 34.6774105,15.3347006 34.1386371,15.3347006 C31.9590541,15.3102109 30.8570178,14.1591952 30.8325281,11.8571637 C30.9304869,9.57962191 32.0080335,8.40411647 34.0161887,8.33064738 C34.7998589,8.37962678 35.7059777,8.60003405 36.734545,9.04084859 C37.0284213,8.60003405 37.1998492,8.15921951 37.1998492,7.76738436 C36.3182201,7.05718316 35.2161838,6.68983771 33.9427196,6.66534801 C30.8080384,6.81228619 29.1672287,8.57554435 29.0447802,11.9551225 L29.0447802,11.9551225 Z M39.9916746,9.77553949 C39.9916746,4.43678562 39.9182055,1.40006323 39.8202468,0.66537233 C39.477391,0.616392937 39.232494,0.591903241 39.0610662,0.591903241 C38.8651486,0.591903241 38.6202516,0.640882634 38.3018856,0.689862027 C38.1794371,0.983738387 38.1304577,3.87352259 38.1304577,9.35921464 C38.1304577,14.0857261 38.2039268,16.6081649 38.3753547,16.9265309 C38.5222928,17 38.7916795,17.0244897 39.159025,17.0244897 C39.4529013,17.0244897 39.6977983,16.9755103 39.8692262,16.8775515 C39.9426952,16.0693915 39.9916746,13.693891 39.9916746,9.77553949 L39.9916746,9.77553949 Z M45.5508358,1.52251171 C45.3794079,1.37557353 45.0120625,1.20414566 44.4732891,0.95924869 C43.9345158,0.763331117 43.5426807,0.640882634 43.3222734,0.640882634 C42.9794176,1.13067657 42.7590104,1.6449602 42.6855413,2.18373352 C42.7835001,2.3306717 43.1508455,2.52658928 43.7385982,2.74699655 C44.3263509,2.99189351 44.7426758,3.0898523 44.9875728,3.0898523 C45.3304285,2.40414079 45.5018564,1.86536747 45.5508358,1.52251171 L45.5508358,1.52251171 Z M44.9875728,11.9306328 C44.9875728,8.89391041 44.9385934,7.22861103 44.8406346,6.88575528 C44.6202273,6.78779649 44.3508406,6.7143274 44.0079849,6.7143274 C43.6161497,6.7143274 43.3467631,6.7633068 43.1753352,6.81228619 C43.0773764,7.10616255 43.028397,8.60003405 43.028397,11.3183904 C43.028397,14.7224582 43.1018661,16.6081649 43.2977837,16.9510206 C43.4202322,17 43.6896188,17.0244897 44.1059437,17.0244897 C44.4487994,17.0244897 44.7181861,16.9755103 44.9141037,16.8775515 C44.9630831,16.5836752 44.9875728,14.9183758 44.9875728,11.9306328 L44.9875728,11.9306328 Z M58.9466999,11.2939007 C58.9466999,10.0694158 58.6038441,8.99186919 57.9181326,8.11024011 C57.1099726,7.17963164 56.0814053,6.68983771 54.8569205,6.68983771 C53.2406005,6.7388171 51.9426466,7.20412134 50.938569,8.11024011 C50.938569,8.67350314 51.1589763,9.11431768 51.5997909,9.40819404 C52.8242757,8.77146192 53.8283532,8.42860617 54.6610029,8.37962678 C55.3712041,8.37962678 55.9834466,8.64901344 56.4977302,9.16329707 C56.9385447,9.653091 57.158952,10.4122716 57.158952,11.4408389 C57.158952,12.4694061 56.9385447,14.2081746 56.5222199,16.6326546 C56.8160962,16.8530618 57.3058902,16.9755103 58.0405811,16.9755103 C58.6038441,15.6530667 58.8977205,13.76736 58.9466999,11.2939007 L58.9466999,11.2939007 Z M50.2283678,16.0693915 C50.2283678,14.7469479 50.1548988,12.9347104 50.05694,10.5836995 C49.9589812,8.62452374 49.8855121,7.37554921 49.812043,6.78779649 C49.4691872,6.7388171 49.1998006,6.7143274 49.0528624,6.7143274 C48.8079654,6.7143274 48.5385788,6.7633068 48.2447024,6.83677589 C48.2447024,7.96330193 48.2447024,9.26125586 48.2936818,10.7306377 C48.3671509,14.4040922 48.4895994,16.4612267 48.6365376,16.9265309 C48.8324551,17 49.1018418,17.0244897 49.4446975,17.0244897 C49.7630636,17.0244897 50.0079606,16.9755103 50.2038781,16.8775515 C50.2038781,16.8285721 50.2283678,16.5591855 50.2283678,16.0693915 L50.2283678,16.0693915 Z M71.2650173,16.1428606 C71.2650173,15.065314 71.2160379,13.4000146 71.1180791,11.1469625 C71.0201203,8.84493101 70.8731821,7.473508 70.7017542,7.03269346 C70.6772645,6.98371407 70.4323676,6.93473467 69.9670633,6.93473467 C69.6242076,6.98371407 69.3548209,7.03269346 69.1833931,7.10616255 C69.1833931,8.40411647 69.2568621,10.461251 69.4527797,13.2775661 C68.1793155,14.6979685 66.9058513,15.4081697 65.6568767,15.4081697 C64.7262683,15.4081697 63.9670877,15.1142934 63.3548452,14.4775612 C62.7181131,13.7918497 62.4242368,12.9592001 62.4242368,11.9796122 C62.4242368,10.8775758 62.7670925,9.97145706 63.4772937,9.28574555 C64.1630052,8.67350314 64.8732064,8.35513708 65.632387,8.33064738 C66.4650367,8.33064738 67.2731967,8.67350314 68.0323773,9.33472495 C68.3752331,9.08982798 68.62013,8.74697223 68.7670682,8.25717829 C67.9833979,7.22861103 66.930341,6.7143274 65.632387,6.7143274 C64.3344331,6.7388171 63.2079071,7.15514194 62.2772986,7.98779163 C61.1997519,9.01635889 60.6609786,10.3632922 60.6609786,11.9796122 C60.6609786,13.5469528 61.1752622,14.8449067 62.2528089,15.8489843 C63.1834174,16.6326546 64.3099434,17 65.632387,17 C67.0038101,17 68.3262537,16.3632679 69.5997179,15.0408243 C69.5997179,15.3591903 69.6486973,15.9714327 69.7956355,16.9020412 C70.1384912,16.9020412 70.6282852,16.9020412 71.2405276,16.8775515 C71.2405276,16.6081649 71.2650173,16.3632679 71.2650173,16.1428606 L71.2650173,16.1428606 Z M81.6486487,7.03269346 C80.9139578,6.83677589 80.2037565,6.7143274 79.4935553,6.7143274 C77.8772354,6.7143274 76.3833639,7.25310073 74.9874512,8.33064738 L74.7915336,6.7633068 C74.4731675,6.7388171 74.2527603,6.7143274 74.1058221,6.7143274 C73.9099045,6.7143274 73.6160281,6.7633068 73.224193,6.81228619 C73.224193,8.1837092 73.2976621,9.92247767 73.4446003,12.0041019 C73.6405178,14.4530715 73.8364354,16.1183709 74.0568427,17.0489794 C74.8650027,17.0489794 75.3547966,17 75.5262245,16.9020412 C75.5262245,16.8040824 75.5507142,16.5836752 75.5507142,16.2408194 C75.5507142,15.6530667 75.403776,13.5714425 75.1098996,9.94696736 C76.6282608,8.86942071 78.2445808,8.30615769 79.9588596,8.30615769 C80.3017153,8.30615769 80.815999,8.35513708 81.5017105,8.42860617 C81.5996693,8.15921951 81.6486487,7.69391527 81.6486487,7.03269346 L81.6486487,7.03269346 Z M93.7710485,7.30208012 C93.4771721,7.00820376 93.085337,6.78779649 92.5465637,6.68983771 C91.469017,8.64901344 90.0486146,11.1224728 88.2853564,14.1102158 C87.4527068,13.0081794 85.983325,10.5592098 83.877211,6.7633068 C83.5343553,6.91024498 83.1180305,7.15514194 82.6282365,7.4979977 C84.2445565,10.9510449 85.7874074,13.693891 87.3057686,15.7020461 C85.8853662,18.1020363 84.8812886,19.8163151 84.2935359,20.795903 C84.4894535,21.2122278 84.9057783,21.4816145 85.493531,21.6285527 C86.301691,20.6489648 87.7465831,18.4204024 89.852697,14.9183758 C92.3506461,10.5592098 93.6486,8.01228133 93.7710485,7.30208012 L93.7710485,7.30208012 Z M112.750563,15.0408243 C112.383218,14.3796025 112.089342,14.012257 111.868934,13.9632776 C110.546491,14.9428655 109.370985,15.4326594 108.317928,15.4326594 C107.583237,15.4326594 106.848547,15.1632728 106.089366,14.6244994 C105.281206,13.9387879 104.889371,13.0326691 104.889371,11.9061431 C104.96284,9.7020704 106.113856,8.47758556 108.317928,8.25717829 C109.738331,8.28166799 110.864857,8.72248253 111.673017,9.60411161 C111.819955,9.55513222 111.991383,9.45717343 112.1873,9.26125586 C112.23628,9.23676616 112.358728,9.08982798 112.603625,8.79595162 C112.21179,8.11024011 111.599548,7.57146679 110.766898,7.17963164 C110.007717,6.83677589 109.199557,6.66534801 108.317928,6.66534801 C104.96284,6.91024498 103.248561,8.64901344 103.150602,11.8816534 C103.150602,13.5469528 103.713865,14.8449067 104.864881,15.8000049 C105.917938,16.6326546 107.093443,17.0489794 108.391397,17.0489794 C109.958738,17.0489794 111.42812,16.3877576 112.750563,15.0408243 L112.750563,15.0408243 Z M124.579087,16.1428606 C124.579087,15.065314 124.530107,13.4000146 124.432149,11.1469625 C124.33419,8.84493101 124.187252,7.473508 124.015824,7.03269346 C123.991334,6.98371407 123.746437,6.93473467 123.281133,6.93473467 C122.938277,6.98371407 122.668891,7.03269346 122.497463,7.10616255 C122.497463,8.40411647 122.570932,10.461251 122.766849,13.2775661 C121.493385,14.6979685 120.219921,15.4081697 118.970946,15.4081697 C118.040338,15.4081697 117.281157,15.1142934 116.668915,14.4775612 C116.032183,13.7918497 115.738306,12.9592001 115.738306,11.9796122 C115.738306,10.8775758 116.081162,9.97145706 116.791363,9.28574555 C117.477075,8.67350314 118.187276,8.35513708 118.946457,8.33064738 C119.779106,8.33064738 120.587266,8.67350314 121.346447,9.33472495 C121.689303,9.08982798 121.9342,8.74697223 122.081138,8.25717829 C121.297468,7.22861103 120.244411,6.7143274 118.946457,6.7143274 C117.648503,6.7388171 116.521977,7.15514194 115.591368,7.98779163 C114.513822,9.01635889 113.975048,10.3632922 113.975048,11.9796122 C113.975048,13.5469528 114.489332,14.8449067 115.566879,15.8489843 C116.497487,16.6326546 117.624013,17 118.946457,17 C120.31788,17 121.640323,16.3632679 122.913788,15.0408243 C122.913788,15.3591903 122.962767,15.9714327 123.109705,16.9020412 C123.452561,16.9020412 123.942355,16.9020412 124.554597,16.8775515 C124.554597,16.6081649 124.579087,16.3632679 124.579087,16.1428606 L124.579087,16.1428606 Z M130.677021,1.30210444 C129.96682,1.25312505 129.428047,1.20414566 129.085191,1.20414566 C128.913763,2.96740382 128.766825,4.82862076 128.619887,6.81228619 C127.836217,6.81228619 127.003567,6.86126558 126.121938,6.93473467 C126.072958,7.13065225 126.048469,7.35105952 126.048469,7.62044618 C126.048469,7.96330193 126.072958,8.1837092 126.121938,8.30615769 C126.856629,8.42860617 127.640299,8.50207526 128.497438,8.50207526 C128.301521,11.5632873 128.228052,13.8163394 128.228052,15.2367418 C128.228052,15.8000049 128.32601,16.2163297 128.521928,16.4857164 C128.766825,16.8530618 129.232129,17.0244897 129.868861,17.0244897 C130.995387,17.0244897 132.023955,16.8040824 132.930073,16.3142885 C132.930073,16.0693915 132.954563,15.8979637 132.954563,15.8000049 C132.930073,15.4816388 132.881094,15.2367418 132.783135,15.065314 C132.36681,15.1142934 131.852527,15.2122521 131.264774,15.3347006 C130.82396,15.38368 130.554573,15.4081697 130.481104,15.4081697 C130.187227,15.4081697 130.064779,15.2857212 130.064779,15.0408243 C130.064779,14.1102158 130.162738,11.9551225 130.309676,8.55105465 C131.142326,8.55105465 131.901506,8.55105465 132.636197,8.50207526 C133.346398,8.45309587 133.787213,8.40411647 133.934151,8.35513708 C133.958641,8.2081989 133.98313,7.98779163 133.98313,7.69391527 C133.958641,7.473508 133.934151,7.25310073 133.934151,7.03269346 C133.24844,6.91024498 132.072934,6.83677589 130.456614,6.83677589 C130.530083,5.02453834 130.603552,3.18781109 130.677021,1.30210444 L130.677021,1.30210444 Z M152.962645,15.0408243 C152.5953,14.3796025 152.301424,14.012257 152.081016,13.9632776 C150.758573,14.9428655 149.583067,15.4326594 148.53001,15.4326594 C147.795319,15.4326594 147.060628,15.1632728 146.301448,14.6244994 C145.493288,13.9387879 145.101453,13.0326691 145.101453,11.9061431 C145.174922,9.7020704 146.325938,8.47758556 148.53001,8.25717829 C149.950413,8.28166799 151.076939,8.72248253 151.885099,9.60411161 C152.032037,9.55513222 152.203465,9.45717343 152.399382,9.26125586 C152.448362,9.23676616 152.57081,9.08982798 152.815707,8.79595162 C152.423872,8.11024011 151.81163,7.57146679 150.97898,7.17963164 C150.219799,6.83677589 149.411639,6.66534801 148.53001,6.66534801 C145.174922,6.91024498 143.460643,8.64901344 143.362684,11.8816534 C143.362684,13.5469528 143.925947,14.8449067 145.076963,15.8000049 C146.13002,16.6326546 147.305525,17.0489794 148.603479,17.0489794 C150.17082,17.0489794 151.640202,16.3877576 152.962645,15.0408243 L152.962645,15.0408243 Z M156.807528,10.6081892 C156.807528,4.90208985 156.734059,1.6204705 156.61161,0.73884142 C156.366713,0.640882634 156.121816,0.591903241 155.85243,0.591903241 C155.460594,0.591903241 155.191208,0.640882634 155.04427,0.714351724 C154.946311,4.31433713 154.921821,7.13065225 154.921821,9.18778677 C154.921821,13.8408291 155.01978,16.436737 155.240187,16.9265309 C155.460594,17 155.705491,17.0489794 155.974878,17.0489794 C156.219775,17.0489794 156.440182,17 156.685079,16.8775515 C156.758548,16.6326546 156.807528,14.5265406 156.807528,10.6081892 L156.807528,10.6081892 Z M162.611586,1.52251171 C162.440158,1.37557353 162.072812,1.20414566 161.534039,0.95924869 C160.995266,0.763331117 160.603431,0.640882634 160.383023,0.640882634 C160.040168,1.13067657 159.81976,1.6449602 159.746291,2.18373352 C159.84425,2.3306717 160.211596,2.52658928 160.799348,2.74699655 C161.387101,2.99189351 161.803426,3.0898523 162.048323,3.0898523 C162.391179,2.40414079 162.562606,1.86536747 162.611586,1.52251171 L162.611586,1.52251171 Z M162.048323,11.9306328 C162.048323,8.89391041 161.999343,7.22861103 161.901385,6.88575528 C161.680977,6.78779649 161.411591,6.7143274 161.068735,6.7143274 C160.6769,6.7143274 160.407513,6.7633068 160.236085,6.81228619 C160.138126,7.10616255 160.089147,8.60003405 160.089147,11.3183904 C160.089147,14.7224582 160.162616,16.6081649 160.358534,16.9510206 C160.480982,17 160.750369,17.0244897 161.166694,17.0244897 C161.509549,17.0244897 161.778936,16.9755103 161.974854,16.8775515 C162.023833,16.5836752 162.048323,14.9183758 162.048323,11.9306328 L162.048323,11.9306328 Z M174.41562,15.0408243 C174.048274,14.3796025 173.754398,14.012257 173.533991,13.9632776 C172.211547,14.9428655 171.036041,15.4326594 169.982984,15.4326594 C169.248294,15.4326594 168.513603,15.1632728 167.754422,14.6244994 C166.946262,13.9387879 166.554427,13.0326691 166.554427,11.9061431 C166.627896,9.7020704 167.778912,8.47758556 169.982984,8.25717829 C171.403387,8.28166799 172.529913,8.72248253 173.338073,9.60411161 C173.485011,9.55513222 173.656439,9.45717343 173.852357,9.26125586 C173.901336,9.23676616 174.023784,9.08982798 174.268681,8.79595162 C173.876846,8.11024011 173.264604,7.57146679 172.431954,7.17963164 C171.672774,6.83677589 170.864614,6.66534801 169.982984,6.66534801 C166.627896,6.91024498 164.913617,8.64901344 164.815658,11.8816534 C164.815658,13.5469528 165.378922,14.8449067 166.529937,15.8000049 C167.582994,16.6326546 168.7585,17.0489794 170.056454,17.0489794 C171.623794,17.0489794 173.093176,16.3877576 174.41562,15.0408243 L174.41562,15.0408243 Z M186.195164,7.81636375 C186.121695,7.52248739 186.023736,7.30208012 185.925777,7.15514194 C185.754349,6.91024498 185.607411,6.7633068 185.509452,6.66534801 C183.893132,7.35105952 181.493142,8.45309587 178.284992,9.99594676 C178.333971,6.56738922 178.38295,4.04495047 178.38295,2.45312019 C178.38295,1.44904262 178.358461,0.861289904 178.333971,0.689862027 C178.187033,0.640882634 177.942136,0.616392937 177.57479,0.616392937 C177.133976,0.616392937 176.864589,0.640882634 176.76663,0.689862027 C176.497244,4.65719289 176.374795,8.55105465 176.374795,12.3224679 C176.374795,14.8693964 176.423775,16.4122473 176.570713,16.9510206 C176.717651,17 176.962548,17.0244897 177.305404,17.0244897 C177.721729,17.0244897 177.991115,17 178.089074,16.9020412 C178.162543,16.6081649 178.211523,15.8489843 178.236012,14.6244994 C178.236012,12.9592001 178.260502,12.077571 178.284992,11.9306328 C179.166621,11.5632873 180.538044,10.9265552 182.42375,9.99594676 C184.774761,8.82044132 186.023736,8.08575042 186.195164,7.81636375 L186.195164,7.81636375 Z M185.974756,16.0938812 C185.778839,15.7510255 185.117617,14.9183758 183.991091,13.5959322 C182.987013,12.4694061 182.374771,11.8571637 182.129874,11.7592049 C181.566611,12.0285916 181.223755,12.3469576 181.076817,12.6898134 C181.223755,13.0571588 181.762529,13.8163394 182.742116,14.9918449 C183.917622,16.3387782 184.652313,17 184.946189,17.0489794 C185.435983,16.8040824 185.778839,16.4857164 185.974756,16.0938812 L185.974756,16.0938812 Z M197.901239,11.5632873 C197.876749,10.1183952 197.362465,8.9184001 196.382877,7.93881224 C195.452269,7.08167285 194.227784,6.64085831 192.660444,6.64085831 C191.019634,6.64085831 189.648211,7.27759043 188.570664,8.52656496 C187.786994,9.48166313 187.419649,10.706148 187.419649,12.2245092 C187.419649,13.5959322 187.860463,14.7469479 188.766582,15.628577 C189.795149,16.5591855 191.240041,17.0244897 193.052279,17.0489794 C194.178805,17.0489794 195.256351,16.755103 196.309408,16.1428606 C196.21145,15.5795976 196.064511,15.1387831 195.819614,14.820417 C194.913496,15.2367418 194.007377,15.4326594 193.125748,15.4326594 C191.166572,15.4326594 189.917598,14.6979685 189.378824,13.1796073 C193.933908,12.9836897 196.750223,12.7143031 197.77879,12.3469576 C197.852259,12.3224679 197.901239,12.0530813 197.901239,11.5632873 L197.901239,11.5632873 Z M196.089001,11.1959419 C192.317588,11.5143079 190.040046,11.7102255 189.231886,11.7592049 C189.305355,10.7306377 189.623721,9.92247767 190.211474,9.31023525 C190.921675,8.57554435 191.754325,8.2081989 192.684933,8.2081989 C193.933908,8.2081989 194.889006,8.64901344 195.525738,9.48166313 C195.868594,10.0204365 196.064511,10.6081892 196.089001,11.1959419 L196.089001,11.1959419 Z M208.039973,7.03269346 C207.305282,6.83677589 206.595081,6.7143274 205.88488,6.7143274 C204.26856,6.7143274 202.774688,7.25310073 201.378776,8.33064738 L201.182858,6.7633068 C200.864492,6.7388171 200.644085,6.7143274 200.497147,6.7143274 C200.301229,6.7143274 200.007353,6.7633068 199.615517,6.81228619 C199.615517,8.1837092 199.688987,9.92247767 199.835925,12.0041019 C200.031842,14.4530715 200.22776,16.1183709 200.448167,17.0489794 C201.256327,17.0489794 201.746121,17 201.917549,16.9020412 C201.917549,16.8040824 201.942039,16.5836752 201.942039,16.2408194 C201.942039,15.6530667 201.7951,13.5714425 201.501224,9.94696736 C203.019585,8.86942071 204.635905,8.30615769 206.350184,8.30615769 C206.69304,8.30615769 207.207323,8.35513708 207.893035,8.42860617 C207.990994,8.15921951 208.039973,7.69391527 208.039973,7.03269346 L208.039973,7.03269346 Z" id="Ordinary-cat-clicker" fill="#000000" sketch:type="MSShapeGroup"></path>
    </g>
</svg>